<svg xmlns="http://www.w3.org/2000/svg" viewBox="0 0 760 405" font-family="Inter, Arial, sans-serif">
  <title>Comprobar la altura de la cejuela pisando la cuerda en el tercer traste, con los trastes a escala</title>
  <defs>
    <linearGradient id="bone" x1="0" y1="0" x2="0" y2="1"><stop offset="0" stop-color="#fdf9ef"/><stop offset="1" stop-color="#e6d6b4"/></linearGradient>
    <linearGradient id="boneH" x1="0" y1="0" x2="1" y2="0"><stop offset="0" stop-color="#efe3c8"/><stop offset=".5" stop-color="#fdf9ef"/><stop offset="1" stop-color="#e3d2ad"/></linearGradient>
    <linearGradient id="rose" x1="0" y1="0" x2="0" y2="1"><stop offset="0" stop-color="#4f3626"/><stop offset="1" stop-color="#2c1d13"/></linearGradient>
    <linearGradient id="spruce" x1="0" y1="0" x2="1" y2="1"><stop offset="0" stop-color="#f4e2bb"/><stop offset="1" stop-color="#dfbf8a"/></linearGradient>
    <linearGradient id="mahog" x1="0" y1="0" x2="0" y2="1"><stop offset="0" stop-color="#97643c"/><stop offset="1" stop-color="#6b4226"/></linearGradient>
    <linearGradient id="maple" x1="0" y1="0" x2="0" y2="1"><stop offset="0" stop-color="#d9b07a"/><stop offset="1" stop-color="#b98a55"/></linearGradient>
    <linearGradient id="ebony" x1="0" y1="0" x2="0" y2="1"><stop offset="0" stop-color="#3b2b1e"/><stop offset="1" stop-color="#18100a"/></linearGradient>
    <linearGradient id="nickel" x1="0" y1="0" x2="0" y2="1"><stop offset="0" stop-color="#f4f7f9"/><stop offset=".55" stop-color="#bcc6cd"/><stop offset="1" stop-color="#8c99a2"/></linearGradient>
    <linearGradient id="steel" x1="0" y1="0" x2="0" y2="1"><stop offset="0" stop-color="#7d8890"/><stop offset=".5" stop-color="#d6dde2"/><stop offset="1" stop-color="#6c767d"/></linearGradient>
    <radialGradient id="ballg" cx=".35" cy=".35" r=".7"><stop offset="0" stop-color="#f2c76a"/><stop offset="1" stop-color="#9b7426"/></radialGradient>
    <marker id="ar" viewBox="0 0 10 10" refX="5" refY="5" markerWidth="7" markerHeight="7" orient="auto-start-reverse"><path d="M0,0 L10,5 L0,10 Z" fill="#4076AA"/></marker>
    <pattern id="hatch" width="7" height="7" patternUnits="userSpaceOnUse" patternTransform="rotate(45)"><line x1="0" y1="0" x2="0" y2="7" stroke="#c9b48a" stroke-width="2"/></pattern>
  </defs>
  <rect width="760" height="405" fill="#ffffff"/>
  <rect x="70.0" y="250.0" width="690.0" height="30.0" fill="url(#rose)" stroke="#1c2b36" stroke-width="1.5"/>
  <rect x="0" y="280.0" width="760" height="70.0" fill="url(#mahog)" stroke="#1c2b36" stroke-width="1.5"/>
  <rect x="40.0" y="239.0" width="30.0" height="41.0" fill="url(#boneH)" stroke="#1c2b36" stroke-width="1.5"/>
  <path d="M245.0,250.0 Q245.0,244.0 251.0,244.0 Q257.0,244.0 257.0,250.0 Z" fill="url(#nickel)" stroke="#1c2b36" stroke-width=".8"/>
  <path d="M415.9,250.0 Q415.9,244.0 421.9,244.0 Q427.9,244.0 427.9,250.0 Z" fill="url(#nickel)" stroke="#1c2b36" stroke-width=".8"/>
  <path d="M577.1,250.0 Q577.1,244.0 583.1,244.0 Q589.1,244.0 589.1,250.0 Z" fill="url(#nickel)" stroke="#1c2b36" stroke-width=".8"/>
  <path d="M729.3,250.0 Q729.3,244.0 735.3,244.0 Q741.3,244.0 741.3,250.0 Z" fill="url(#nickel)" stroke="#1c2b36" stroke-width=".8"/>
  <path d="M70.0,239.0 L538.1,245.5 L583.1,241.5 L760,224.0" fill="none" stroke="url(#steel)" stroke-width="5.0" stroke-linejoin="round"/>
  <path d="M70.0,239.0 L538.1,245.5 L583.1,241.5 L760,224.0" fill="none" stroke="#5f6a71" stroke-width=".8" stroke-opacity=".6"/>
  <path d="M463.1,140.0 C498.1,210.0 508.1,243.0 538.1,244.0 C566.1,243.0 572.1,210.0 558.1,140.0 Z" fill="#f0c7a3" stroke="#1c2b36" stroke-width="1.5"/>
  <path d="M508.1,180.0 Q538.1,190.0 560.1,178.0" fill="none" stroke="#d9a07a" stroke-width="1.5"/>
  <circle cx="251.0" cy="244.0" r="22" fill="none" stroke="#4076AA" stroke-width="2"/>
  <line x1="241.0" y1="224.0" x2="210.0" y2="163.0" stroke="#4076AA" stroke-width="1.5"/>
  <clipPath id="zc"><circle cx="190.0" cy="105.0" r="62.0"/></clipPath>
  <circle cx="190.0" cy="105.0" r="62.0" fill="#f5f7f9"/>
  <g clip-path="url(#zc)"><rect x="128.0" y="145.0" width="124.0" height="40" fill="url(#rose)"/><path d="M158.8,145.0 Q158.8,115.0 190.0,115.0 Q221.2,115.0 221.2,145.0 Z" fill="url(#nickel)" stroke="#1c2b36" stroke-width="1"/><line x1="128.0" y1="96.5" x2="252.0" y2="102.5" stroke="url(#steel)" stroke-width="25.0"/></g>
  <circle cx="190.0" cy="105.0" r="62.0" fill="none" stroke="#4076AA" stroke-width="2.5"/>
  <text x="266.0" y="70.0" font-size="15" font-weight="700" fill="#1c2b36">Traste 1, ampliado:</text>
  <text x="266.0" y="88.0" font-size="13" fill="#62727d">debe quedar una holgura mínima</text>
  <text x="518.1" y="126.0" font-size="15" font-weight="700" fill="#1c2b36" text-anchor="middle">Pisa justo detrás del traste 3</text>
  <text x="251.0" y="372.0" font-size="13" font-weight="600" fill="#62727d" text-anchor="middle">1</text>
  <text x="421.9" y="372.0" font-size="13" font-weight="600" fill="#62727d" text-anchor="middle">2</text>
  <text x="583.1" y="372.0" font-size="13" font-weight="600" fill="#62727d" text-anchor="middle">3</text>
  <text x="735.3" y="372.0" font-size="13" font-weight="600" fill="#62727d" text-anchor="middle">4</text>
  <text x="55.0" y="372.0" font-size="13" fill="#62727d" text-anchor="middle">Cejuela</text>
  <text x="380.0" y="395.0" font-size="13" fill="#62727d" text-anchor="middle">Posiciones de los trastes a escala real (escala de 645 mm)</text>
</svg>
